<mxfile host="app.diagrams.net" agent="Mozilla/5.0 (X11; Linux x86_64) AppleWebKit/537.36 (KHTML, like Gecko) Chrome/126.0.0.0 Safari/537.36" version="24.7.16">
  <diagram name="PÃ¡gina-1" id="hF0sD3WcsGs6lUz0zhXU">
    <mxGraphModel dx="934" dy="852" grid="1" gridSize="10" guides="1" tooltips="1" connect="1" arrows="1" fold="1" page="1" pageScale="1" pageWidth="827" pageHeight="1169" math="0" shadow="0">
      <root>
        <mxCell id="0" />
        <mxCell id="1" parent="0" />
        <mxCell id="iTAOIqhcdl7onvJFEaNJ-1" value="CLIENTE" style="whiteSpace=wrap;html=1;" vertex="1" parent="1">
          <mxGeometry x="110" y="80" width="120" height="60" as="geometry" />
        </mxCell>
        <mxCell id="iTAOIqhcdl7onvJFEaNJ-3" value="CUENTA" style="whiteSpace=wrap;html=1;" vertex="1" parent="1">
          <mxGeometry x="440" y="60" width="120" height="60" as="geometry" />
        </mxCell>
        <mxCell id="iTAOIqhcdl7onvJFEaNJ-5" value="SUCURSAL" style="whiteSpace=wrap;html=1;" vertex="1" parent="1">
          <mxGeometry x="110" y="282.5" width="120" height="60" as="geometry" />
        </mxCell>
        <mxCell id="iTAOIqhcdl7onvJFEaNJ-6" value="TRANSACCION" style="whiteSpace=wrap;html=1;" vertex="1" parent="1">
          <mxGeometry x="440" y="282.5" width="120" height="60" as="geometry" />
        </mxCell>
        <mxCell id="iTAOIqhcdl7onvJFEaNJ-7" value="" style="whiteSpace=wrap;html=1;fillColor=none;" vertex="1" parent="1">
          <mxGeometry x="430" y="270" width="140" height="85" as="geometry" />
        </mxCell>
        <mxCell id="iTAOIqhcdl7onvJFEaNJ-8" value="" style="endArrow=none;html=1;rounded=0;entryX=0.5;entryY=1;entryDx=0;entryDy=0;" edge="1" parent="1" source="iTAOIqhcdl7onvJFEaNJ-9" target="iTAOIqhcdl7onvJFEaNJ-3">
          <mxGeometry width="50" height="50" relative="1" as="geometry">
            <mxPoint x="380" y="400" as="sourcePoint" />
            <mxPoint x="430" y="350" as="targetPoint" />
          </mxGeometry>
        </mxCell>
        <mxCell id="iTAOIqhcdl7onvJFEaNJ-10" value="" style="endArrow=none;html=1;rounded=0;entryX=0.5;entryY=1;entryDx=0;entryDy=0;" edge="1" parent="1" source="iTAOIqhcdl7onvJFEaNJ-7" target="iTAOIqhcdl7onvJFEaNJ-9">
          <mxGeometry width="50" height="50" relative="1" as="geometry">
            <mxPoint x="500" y="270" as="sourcePoint" />
            <mxPoint x="500" y="120" as="targetPoint" />
          </mxGeometry>
        </mxCell>
        <mxCell id="iTAOIqhcdl7onvJFEaNJ-9" value="realiza" style="rhombus;whiteSpace=wrap;html=1;" vertex="1" parent="1">
          <mxGeometry x="475" y="170" width="50" height="50" as="geometry" />
        </mxCell>
        <mxCell id="iTAOIqhcdl7onvJFEaNJ-12" value="" style="endArrow=none;html=1;rounded=0;exitX=1;exitY=0;exitDx=0;exitDy=0;entryX=0;entryY=1;entryDx=0;entryDy=0;" edge="1" parent="1" source="iTAOIqhcdl7onvJFEaNJ-13" target="iTAOIqhcdl7onvJFEaNJ-3">
          <mxGeometry width="50" height="50" relative="1" as="geometry">
            <mxPoint x="380" y="400" as="sourcePoint" />
            <mxPoint x="430" y="350" as="targetPoint" />
          </mxGeometry>
        </mxCell>
        <mxCell id="iTAOIqhcdl7onvJFEaNJ-14" value="" style="endArrow=none;html=1;rounded=0;exitX=1;exitY=0;exitDx=0;exitDy=0;entryX=0;entryY=1;entryDx=0;entryDy=0;" edge="1" parent="1" source="iTAOIqhcdl7onvJFEaNJ-5" target="iTAOIqhcdl7onvJFEaNJ-13">
          <mxGeometry width="50" height="50" relative="1" as="geometry">
            <mxPoint x="230" y="283" as="sourcePoint" />
            <mxPoint x="440" y="120" as="targetPoint" />
          </mxGeometry>
        </mxCell>
        <mxCell id="iTAOIqhcdl7onvJFEaNJ-13" value="pertenece" style="rhombus;whiteSpace=wrap;html=1;" vertex="1" parent="1">
          <mxGeometry x="320" y="170" width="50" height="50" as="geometry" />
        </mxCell>
        <mxCell id="iTAOIqhcdl7onvJFEaNJ-15" value="n_transaccion&amp;nbsp; &amp;nbsp; fecha&amp;nbsp; &amp;nbsp; cantidad" style="text;html=1;align=center;verticalAlign=middle;resizable=0;points=[];autosize=1;strokeColor=none;fillColor=none;" vertex="1" parent="1">
          <mxGeometry x="400" y="420" width="200" height="30" as="geometry" />
        </mxCell>
        <mxCell id="iTAOIqhcdl7onvJFEaNJ-17" value="" style="ellipse;whiteSpace=wrap;html=1;aspect=fixed;fillColor=#000000;" vertex="1" parent="1">
          <mxGeometry x="440" y="410" width="20" height="20" as="geometry" />
        </mxCell>
        <mxCell id="iTAOIqhcdl7onvJFEaNJ-18" value="" style="ellipse;whiteSpace=wrap;html=1;aspect=fixed;" vertex="1" parent="1">
          <mxGeometry x="505" y="410" width="20" height="20" as="geometry" />
        </mxCell>
        <mxCell id="iTAOIqhcdl7onvJFEaNJ-19" value="" style="ellipse;whiteSpace=wrap;html=1;aspect=fixed;" vertex="1" parent="1">
          <mxGeometry x="560" y="410" width="20" height="20" as="geometry" />
        </mxCell>
        <mxCell id="iTAOIqhcdl7onvJFEaNJ-20" value="" style="endArrow=none;html=1;rounded=0;entryX=0.25;entryY=1;entryDx=0;entryDy=0;exitX=0.5;exitY=0;exitDx=0;exitDy=0;" edge="1" parent="1" source="iTAOIqhcdl7onvJFEaNJ-17" target="iTAOIqhcdl7onvJFEaNJ-7">
          <mxGeometry width="50" height="50" relative="1" as="geometry">
            <mxPoint x="450" y="400" as="sourcePoint" />
            <mxPoint x="430" y="350" as="targetPoint" />
          </mxGeometry>
        </mxCell>
        <mxCell id="iTAOIqhcdl7onvJFEaNJ-22" value="" style="endArrow=none;html=1;rounded=0;entryX=0.5;entryY=1;entryDx=0;entryDy=0;exitX=0.5;exitY=0;exitDx=0;exitDy=0;" edge="1" parent="1" source="iTAOIqhcdl7onvJFEaNJ-18" target="iTAOIqhcdl7onvJFEaNJ-7">
          <mxGeometry width="50" height="50" relative="1" as="geometry">
            <mxPoint x="460" y="420" as="sourcePoint" />
            <mxPoint x="475" y="365" as="targetPoint" />
          </mxGeometry>
        </mxCell>
        <mxCell id="iTAOIqhcdl7onvJFEaNJ-23" value="" style="endArrow=none;html=1;rounded=0;entryX=0.871;entryY=1.059;entryDx=0;entryDy=0;exitX=0.5;exitY=0;exitDx=0;exitDy=0;entryPerimeter=0;" edge="1" parent="1" source="iTAOIqhcdl7onvJFEaNJ-19" target="iTAOIqhcdl7onvJFEaNJ-7">
          <mxGeometry width="50" height="50" relative="1" as="geometry">
            <mxPoint x="470" y="430" as="sourcePoint" />
            <mxPoint x="485" y="375" as="targetPoint" />
          </mxGeometry>
        </mxCell>
        <mxCell id="iTAOIqhcdl7onvJFEaNJ-24" value="" style="endArrow=none;html=1;rounded=0;entryX=0;entryY=0.5;entryDx=0;entryDy=0;exitX=1;exitY=0.5;exitDx=0;exitDy=0;" edge="1" parent="1" source="iTAOIqhcdl7onvJFEaNJ-1" target="iTAOIqhcdl7onvJFEaNJ-3">
          <mxGeometry width="50" height="50" relative="1" as="geometry">
            <mxPoint x="380" y="400" as="sourcePoint" />
            <mxPoint x="430" y="350" as="targetPoint" />
          </mxGeometry>
        </mxCell>
        <mxCell id="iTAOIqhcdl7onvJFEaNJ-25" value="Tiene" style="rhombus;whiteSpace=wrap;html=1;" vertex="1" parent="1">
          <mxGeometry x="310" y="70" width="50" height="50" as="geometry" />
        </mxCell>
        <mxCell id="iTAOIqhcdl7onvJFEaNJ-26" value="(1,n)" style="text;html=1;align=center;verticalAlign=middle;resizable=0;points=[];autosize=1;strokeColor=none;fillColor=none;" vertex="1" parent="1">
          <mxGeometry x="215" y="78" width="50" height="30" as="geometry" />
        </mxCell>
        <mxCell id="iTAOIqhcdl7onvJFEaNJ-27" value="M:N" style="text;html=1;align=center;verticalAlign=middle;resizable=0;points=[];autosize=1;strokeColor=none;fillColor=none;" vertex="1" parent="1">
          <mxGeometry x="305" y="38" width="50" height="30" as="geometry" />
        </mxCell>
        <mxCell id="iTAOIqhcdl7onvJFEaNJ-28" value="(1,n)" style="text;html=1;align=center;verticalAlign=middle;resizable=0;points=[];autosize=1;strokeColor=none;fillColor=none;" vertex="1" parent="1">
          <mxGeometry x="395" y="58" width="50" height="30" as="geometry" />
        </mxCell>
        <mxCell id="iTAOIqhcdl7onvJFEaNJ-29" value="cod_cliente&lt;div&gt;nombre&lt;/div&gt;&lt;div&gt;apellidos&lt;/div&gt;&lt;div&gt;dni&lt;/div&gt;&lt;div&gt;telefono&lt;/div&gt;&lt;div&gt;direccion&lt;/div&gt;" style="text;html=1;align=center;verticalAlign=middle;resizable=0;points=[];autosize=1;strokeColor=none;fillColor=none;" vertex="1" parent="1">
          <mxGeometry x="30" y="78" width="80" height="100" as="geometry" />
        </mxCell>
        <mxCell id="iTAOIqhcdl7onvJFEaNJ-30" value="calle&lt;div&gt;numero&lt;/div&gt;&lt;div&gt;piso&lt;/div&gt;&lt;div&gt;localidad&lt;/div&gt;&lt;div&gt;cp&lt;/div&gt;" style="text;html=1;align=center;verticalAlign=middle;resizable=0;points=[];autosize=1;strokeColor=none;fillColor=none;" vertex="1" parent="1">
          <mxGeometry x="10" y="188" width="70" height="90" as="geometry" />
        </mxCell>
        <mxCell id="iTAOIqhcdl7onvJFEaNJ-31" value="(1,1)" style="text;html=1;align=center;verticalAlign=middle;resizable=0;points=[];autosize=1;strokeColor=none;fillColor=none;" vertex="1" parent="1">
          <mxGeometry x="175" y="248" width="50" height="30" as="geometry" />
        </mxCell>
        <mxCell id="iTAOIqhcdl7onvJFEaNJ-32" value="(1,n)" style="text;html=1;align=center;verticalAlign=middle;resizable=0;points=[];autosize=1;strokeColor=none;fillColor=none;" vertex="1" parent="1">
          <mxGeometry x="425" y="120" width="50" height="30" as="geometry" />
        </mxCell>
        <mxCell id="iTAOIqhcdl7onvJFEaNJ-33" value="(1,1)" style="text;html=1;align=center;verticalAlign=middle;resizable=0;points=[];autosize=1;strokeColor=none;fillColor=none;" vertex="1" parent="1">
          <mxGeometry x="500" y="113" width="50" height="30" as="geometry" />
        </mxCell>
        <mxCell id="iTAOIqhcdl7onvJFEaNJ-34" value="(0,n)" style="text;html=1;align=center;verticalAlign=middle;resizable=0;points=[];autosize=1;strokeColor=none;fillColor=none;" vertex="1" parent="1">
          <mxGeometry x="495" y="238" width="50" height="30" as="geometry" />
        </mxCell>
        <mxCell id="iTAOIqhcdl7onvJFEaNJ-35" value="" style="endArrow=none;html=1;rounded=0;entryX=0.342;entryY=1.05;entryDx=0;entryDy=0;entryPerimeter=0;" edge="1" parent="1" target="iTAOIqhcdl7onvJFEaNJ-1">
          <mxGeometry width="50" height="50" relative="1" as="geometry">
            <mxPoint x="90" y="190" as="sourcePoint" />
            <mxPoint x="430" y="350" as="targetPoint" />
          </mxGeometry>
        </mxCell>
        <mxCell id="iTAOIqhcdl7onvJFEaNJ-36" value="" style="ellipse;whiteSpace=wrap;html=1;aspect=fixed;" vertex="1" parent="1">
          <mxGeometry x="80" y="190" width="10" height="10" as="geometry" />
        </mxCell>
        <mxCell id="iTAOIqhcdl7onvJFEaNJ-37" value="" style="endArrow=none;html=1;rounded=0;" edge="1" parent="1">
          <mxGeometry width="50" height="50" relative="1" as="geometry">
            <mxPoint x="60" y="200" as="sourcePoint" />
            <mxPoint x="80" y="190" as="targetPoint" />
          </mxGeometry>
        </mxCell>
        <mxCell id="iTAOIqhcdl7onvJFEaNJ-38" value="" style="endArrow=none;html=1;rounded=0;" edge="1" parent="1">
          <mxGeometry width="50" height="50" relative="1" as="geometry">
            <mxPoint x="60" y="210" as="sourcePoint" />
            <mxPoint x="80" y="200" as="targetPoint" />
          </mxGeometry>
        </mxCell>
        <mxCell id="iTAOIqhcdl7onvJFEaNJ-39" value="" style="endArrow=none;html=1;rounded=0;" edge="1" parent="1">
          <mxGeometry width="50" height="50" relative="1" as="geometry">
            <mxPoint x="70" y="220" as="sourcePoint" />
            <mxPoint x="90" y="210" as="targetPoint" />
          </mxGeometry>
        </mxCell>
      </root>
    </mxGraphModel>
  </diagram>
</mxfile>
